# xmcd CD database file
#
# Track frame offsets:
#	150
#	27089
#	44804
#	59009
#	78315
#	109731
#	134672
#	153122
#	155082
#	182348
#	209448
#	237661
#	254381
#	269914
#	295462
#	313146
#
# Disc length: 4353 seconds
#
# Revision: 0
# Processed by: cddbd v1.5PL3 Copyright (c) Steve Scherf et al.
# Submitted via: CDex 1.51
#
DISCID=fb10ff10
DTITLE=Eddie Harris And Pharaoh Sanders - Eddie Harris And Pharaoh Sanders
DYEAR=1900
DGENRE=Jazz
TTITLE0=Boogie Woogie Bossanova
TTITLE1=All Right Now
TTITLE2=It's crazy
TTITLE3=Live in Berlin
TTITLE4=Live right now
TTITLE5=Love Theme From
TTITLE6=Theme Search
TTITLE7=William Orbit Essential Mix
TTITLE8=Pharaoh Sanders/ Country Mile
TTITLE9=Pharaoh Sanders/ Everything I have is God
TTITLE10=Stevie Wonder/ Ordinary Pain
TTITLE11=Stevie Wonder/ Time Lover
TTITLE12=Stevie Wonder/ Pasttime Paradise
TTITLE13=Stevie Wonder/ Ribben in the Sky
TTITLE14=Stevie Wonder/ I Love Every Little Thing About You
TTITLE15=Stevie Wonder/ I Love you more today
EXTD=
EXTT0=
EXTT1=
EXTT2=
EXTT3=
EXTT4=
EXTT5=
EXTT6=
EXTT7=
EXTT8=
EXTT9=
EXTT10=
EXTT11=
EXTT12=
EXTT13=
EXTT14=
EXTT15=
PLAYORDER=
